<!-- Generated by IcoMoon.io -->
<svg version="1.1" xmlns="http://www.w3.org/2000/svg" width="1024" height="1024" viewBox="0 0 1024 1024">
<title></title>
<g id="icomoon-ignore">
</g>
<path fill="#000" d="M921.6 174.080c50.387 0 91.334 40.44 92.147 90.636l0.013 1.524v552.96c0 50.387-40.442 91.334-90.637 92.147l-1.523 0.013h-819.2c-50.389 0-91.334-40.442-92.147-90.637l-0.012-1.523v-552.96c0-50.39 40.44-91.334 90.636-92.148l1.524-0.012h819.2zM71.68 317.608v501.592c0 16.749 13.408 30.374 30.077 30.714l0.643 0.006h819.2c16.749 0 30.374-13.408 30.72-30.080v-490.194l-376.479 240.787c-32.707 24.998-77.975 25.247-110.932 0.75l-0.995-0.75-392.233-252.824zM935.776 242.356l-832.033 0.209c-0.328 0.3-0.643 0.614-0.944 0.943l-0.442 0.503-0.419 0.524c-4.919 6.435-3.823 15.58 2.386 20.682l0.422 0.334 396.476 256.067c10.815 8.266 25.752 8.414 36.715 0.443l0.594-0.443 396.477-256.067c1.875-1.433 3.379-3.287 4.403-5.408l0.269-0.586 0.218-0.536c2.208-5.739 0.646-12.067-3.552-16.145l-0.403-0.376-0.166-0.145z"></path>
</svg>
