<!-- Generated by IcoMoon.io -->
<svg version="1.1" xmlns="http://www.w3.org/2000/svg" width="1024" height="1024" viewBox="0 0 1024 1024">
<title></title>
<g id="icomoon-ignore">
</g>
<path fill="#000" d="M610.712 83.968h-132.436c-9.421 0-17.066 7.645-17.066 17.066s7.645 17.067 17.066 17.067h132.436c9.421 0 17.066-7.646 17.066-17.067s-7.645-17.066-17.066-17.066z"></path>
<path fill="#000" d="M430.080 117.828c9.275 0 16.794-7.519 16.794-16.794s-7.519-16.794-16.794-16.794c-9.275 0-16.794 7.519-16.794 16.794s7.519 16.794 16.794 16.794z"></path>
<path fill="#000" d="M703.827 36.182h-383.656c-32.358 0-58.71 26.351-58.71 58.709v834.357c0 32.358 26.351 58.707 58.71 58.707h383.656c32.358 0 58.714-26.349 58.714-58.707v-834.357c0-32.358-26.355-58.709-58.714-58.709zM728.403 929.107c0 13.517-11.059 24.576-24.576 24.576h-383.656c-13.517 0-24.576-11.059-24.576-24.576v-91.61h432.808v91.61zM728.403 803.36h-432.808v-633.922h432.808v633.922zM728.403 135.305h-432.808v-40.414c0-13.517 11.059-24.576 24.576-24.576h383.656c13.517 0 24.576 11.059 24.576 24.576v40.414z"></path>
<path fill="#000" d="M512 948.499c29.628 0 53.658-24.166 53.658-53.658s-24.030-53.798-53.658-53.798c-29.628 0-53.658 24.166-53.658 53.658s24.029 53.798 53.658 53.798zM512 875.181c10.786 0 19.524 8.736 19.524 19.52 0 10.79-8.738 19.526-19.524 19.526s-19.524-8.736-19.524-19.526c0-10.784 8.738-19.52 19.524-19.52z"></path>
</svg>
