<!-- Generated by IcoMoon.io -->
<svg version="1.1" xmlns="http://www.w3.org/2000/svg" width="1024" height="1024" viewBox="0 0 1024 1024">
<title></title>
<g id="icomoon-ignore">
</g>
<path fill="#D0324B" d="M1019.377 816.174l-5.1-15.36c-12.073-35.881-51.635-73.298-87.987-83.159l-134.533-36.751c-36.48-9.923-88.525 3.42-115.215 30.111l-48.691 48.691c-176.947-47.816-315.702-186.573-363.451-363.487l48.692-48.692c26.693-26.693 40.037-78.666 30.111-115.148l-36.685-134.598c-9.925-36.417-47.415-75.983-83.226-87.922l-15.357-5.163c-35.879-11.938-87.050 0.135-113.74 26.826l-72.833 72.899c-13.012 12.943-21.327 49.962-21.327 50.098-2.547 231.237 88.123 454.020 251.691 617.594 163.166 163.164 385.117 253.701 615.681 251.756 1.208 0 39.301-8.182 52.311-21.125l72.832-72.832c26.691-26.691 38.764-77.86 26.829-113.736z"></path>
</svg>
